<?xml version="1.0" encoding="UTF-8" standalone="no"?>
<svg
   width="372.65515mm"
   viewBox="0 0 1552.7297 1670.7602"
   version="1.1"
   id="svg7"
   height="400.98245mm"
   xmlns="http://www.w3.org/2000/svg"
   xmlns:svg="http://www.w3.org/2000/svg">
  <defs
     id="defs7" />
  <g
     transform="matrix(4.4453678,0,0,4.4453678,776.36482,835.38021)"
     style="color:#fbfbfe;font-weight:400;font-size:16px;font-family:'Anthropic Sans', '-apple-system', BlinkMacSystemFont, 'Segoe UI', sans-serif;dominant-baseline:auto;text-anchor:start;opacity:1;fill:#ffffff;fill-opacity:1;stroke:#000000;stroke-width:1px;stroke-linecap:butt;stroke-linejoin:miter;stroke-opacity:1"
     id="g7">
    <g
       style="color:#fbfbfe;font-weight:400;font-size:16px;font-family:'Anthropic Sans', '-apple-system', BlinkMacSystemFont, 'Segoe UI', sans-serif;dominant-baseline:auto;text-anchor:start;opacity:1;fill:#ffffff;fill-opacity:1;stroke:#000000;stroke-width:1px;stroke-linecap:butt;stroke-linejoin:miter;stroke-opacity:1"
       id="g1">
      <path
         id="ellipse1"
         style="opacity:1;stroke-width:1.05833px"
         d="m 37.791305,-130.17158 a 74.083333,40.216667 70 0 1 -12.453313,83.370476 74.083333,40.216667 70 0 1 -63.129297,-55.860656 74.083333,40.216667 70 0 1 12.453313,-83.37046 74.083333,40.216667 70 0 1 63.129297,55.86064 z" />
    </g>
    <g
       transform="rotate(60)"
       style="color:#fbfbfe;font-weight:400;font-size:16px;font-family:'Anthropic Sans', '-apple-system', BlinkMacSystemFont, 'Segoe UI', sans-serif;dominant-baseline:auto;text-anchor:start;opacity:1;fill:#ffffff;fill-opacity:1;stroke:#000000;stroke-width:1px;stroke-linecap:butt;stroke-linejoin:miter;stroke-opacity:1"
       id="g2">
      <path
         id="ellipse2"
         style="opacity:1;stroke-width:1.05833px"
         d="m 37.791305,-130.17158 a 74.083333,40.216667 70 0 1 -12.453313,83.370476 74.083333,40.216667 70 0 1 -63.129297,-55.860656 74.083333,40.216667 70 0 1 12.453313,-83.37046 74.083333,40.216667 70 0 1 63.129297,55.86064 z" />
    </g>
    <g
       transform="rotate(120)"
       style="color:#fbfbfe;font-weight:400;font-size:16px;font-family:'Anthropic Sans', '-apple-system', BlinkMacSystemFont, 'Segoe UI', sans-serif;dominant-baseline:auto;text-anchor:start;opacity:1;fill:#ffffff;fill-opacity:1;stroke:#000000;stroke-width:1px;stroke-linecap:butt;stroke-linejoin:miter;stroke-opacity:1"
       id="g3">
      <path
         id="ellipse3"
         style="opacity:1;stroke-width:1.05833px"
         d="m 37.791305,-130.17158 a 74.083333,40.216667 70 0 1 -12.453313,83.370476 74.083333,40.216667 70 0 1 -63.129297,-55.860656 74.083333,40.216667 70 0 1 12.453313,-83.37046 74.083333,40.216667 70 0 1 63.129297,55.86064 z" />
    </g>
    <g
       transform="scale(-1)"
       style="color:#fbfbfe;font-weight:400;font-size:16px;font-family:'Anthropic Sans', '-apple-system', BlinkMacSystemFont, 'Segoe UI', sans-serif;dominant-baseline:auto;text-anchor:start;opacity:1;fill:#ffffff;fill-opacity:1;stroke:#000000;stroke-width:1px;stroke-linecap:butt;stroke-linejoin:miter;stroke-opacity:1"
       id="g4">
      <path
         id="ellipse4"
         style="opacity:1;stroke-width:1.05833px"
         d="m 37.791305,-130.17158 a 74.083333,40.216667 70 0 1 -12.453313,83.370476 74.083333,40.216667 70 0 1 -63.129297,-55.860656 74.083333,40.216667 70 0 1 12.453313,-83.37046 74.083333,40.216667 70 0 1 63.129297,55.86064 z" />
    </g>
    <g
       transform="rotate(-120)"
       style="color:#fbfbfe;font-weight:400;font-size:16px;font-family:'Anthropic Sans', '-apple-system', BlinkMacSystemFont, 'Segoe UI', sans-serif;dominant-baseline:auto;text-anchor:start;opacity:1;fill:#ffffff;fill-opacity:1;stroke:#000000;stroke-width:1px;stroke-linecap:butt;stroke-linejoin:miter;stroke-opacity:1"
       id="g5">
      <path
         id="ellipse5"
         style="opacity:1;stroke-width:1.05833px"
         d="m 37.791305,-130.17158 a 74.083333,40.216667 70 0 1 -12.453313,83.370476 74.083333,40.216667 70 0 1 -63.129297,-55.860656 74.083333,40.216667 70 0 1 12.453313,-83.37046 74.083333,40.216667 70 0 1 63.129297,55.86064 z" />
    </g>
    <g
       transform="rotate(-60)"
       style="color:#fbfbfe;font-weight:400;font-size:16px;font-family:'Anthropic Sans', '-apple-system', BlinkMacSystemFont, 'Segoe UI', sans-serif;dominant-baseline:auto;text-anchor:start;opacity:1;fill:#ffffff;fill-opacity:1;stroke:#000000;stroke-width:1px;stroke-linecap:butt;stroke-linejoin:miter;stroke-opacity:1"
       id="g6">
      <path
         id="ellipse6"
         style="opacity:1;stroke-width:1.05833px"
         d="m 37.791305,-130.17158 a 74.083333,40.216667 70 0 1 -12.453313,83.370476 74.083333,40.216667 70 0 1 -63.129297,-55.860656 74.083333,40.216667 70 0 1 12.453313,-83.37046 74.083333,40.216667 70 0 1 63.129297,55.86064 z" />
    </g>
  </g>
</svg>
